HIERARCHY
ROOT Root
{
	OFFSET 0.00000 0.00000 0.00000
	CHANNELS 6 Xposition Yposition Zposition Zrotation Xrotation Yrotation
	JOINT Hip
	{
		OFFSET 0 0 0	
		CHANNELS 3 Zrotation Xrotation Yrotation
		JOINT Tummy
		{
			OFFSET 0 0.04 0	
			CHANNELS 3 Zrotation Xrotation Yrotation
			JOINT ChestBottom
			{
				OFFSET 0 0.194 0	
				CHANNELS 3 Zrotation Xrotation Yrotation
				JOINT ChestTop
				{
					OFFSET 0 0.166 0	
					CHANNELS 3 Zrotation Xrotation Yrotation
					JOINT LeftCollar
					{
						OFFSET 0 0.1 0	
						CHANNELS 3 Zrotation Xrotation Yrotation
						JOINT LeftUpperArm
						{
							OFFSET 0.156 -0.02 0.03	
							CHANNELS 3 Zrotation Xrotation Yrotation
							JOINT LeftForeArm
							{
								OFFSET 0.035 -0.27 -0.01	
								CHANNELS 3 Zrotation Xrotation Yrotation
								JOINT LeftHand
								{
									OFFSET 0.01 -0.27 0.01	
									CHANNELS 3 Zrotation Xrotation Yrotation
									End Site
									{
										OFFSET 0 -0.15 0
									}
								}
							}
						}
					}
					JOINT RightCollar
					{
						OFFSET 0 0.1 0	
						CHANNELS 3 Zrotation Xrotation Yrotation
						JOINT RightUpperArm
						{
							OFFSET -0.156 -0.02 0.03	
							CHANNELS 3 Zrotation Xrotation Yrotation
							JOINT RightForeArm
							{
								OFFSET -0.035 -0.27 -0.01	
								CHANNELS 3 Zrotation Xrotation Yrotation
								JOINT RightHand
								{
									OFFSET -0.01 -0.27 0.01	
									CHANNELS 3 Zrotation Xrotation Yrotation
									End Site
									{
										OFFSET 0 -0.15 0
									}
								}
							}
						}
					}
					JOINT Neck
					{
						OFFSET 0 0.1 0	
						CHANNELS 3 Zrotation Xrotation Yrotation
						JOINT Head
						{
							OFFSET 0 0.127 0.03	
							CHANNELS 3 Zrotation Xrotation Yrotation
							End Site
							{
								OFFSET 0 0.127 0.03
							}
						}
					}
				}
			}
		}
	}
	JOINT LeftHip
	{
		OFFSET 0 0 0	
		CHANNELS 3 Zrotation Xrotation Yrotation
		JOINT LeftThigh
		{
			OFFSET 0.088 -0.06 0	
			CHANNELS 3 Zrotation Xrotation Yrotation
			JOINT LeftLowerLeg
			{
				OFFSET 0 -0.39 0.02	
				CHANNELS 3 Zrotation Xrotation Yrotation
				JOINT LeftFootTop
				{
					OFFSET 0 -0.43 -0.02	
					CHANNELS 3 Zrotation Xrotation Yrotation
					JOINT LeftFootFront
					{
						OFFSET 0 -0.07 0.085	
						CHANNELS 3 Zrotation Xrotation Yrotation
						End Site
						{
							OFFSET 0 -0.005 0.09
						}
					}
				}
				JOINT LeftHeel
				{
					OFFSET 0 -0.43 -0.02	
					CHANNELS 3 Zrotation Xrotation Yrotation
					End Site
					{
						OFFSET 0 -0.075 -0.05
					}
				}
			}
		}
	}
	JOINT RightHip
	{
		OFFSET 0 0 0	
		CHANNELS 3 Zrotation Xrotation Yrotation
		JOINT RightThigh
		{
			OFFSET -0.088 -0.06 0	
			CHANNELS 3 Zrotation Xrotation Yrotation
			JOINT RightLowerLeg
			{
				OFFSET 0 -0.39 0.02	
				CHANNELS 3 Zrotation Xrotation Yrotation
				JOINT RightFootTop
				{
					OFFSET 0 -0.43 -0.02	
					CHANNELS 3 Zrotation Xrotation Yrotation
					JOINT RightFootFront
					{
						OFFSET 0 -0.07 0.085	
						CHANNELS 3 Zrotation Xrotation Yrotation
						End Site
						{
							OFFSET 0 -0.005 0.09
						}
					}
				}
				JOINT RightHeel
				{
					OFFSET 0 -0.43 -0.02	
					CHANNELS 3 Zrotation Xrotation Yrotation
					End Site
					{
						OFFSET 0 -0.075 -0.05
					}
				}
			}
		}
	}
}
MOTION
Frames: 36
Frame Time: 0.05
0 0.955 0 -0 0 -0 -0 0 -0 -0 0 -0 -5.9784 30.389 28.372 -0 0 -0 -0 0 -0 0.088186 -31.934 0.75698 -42.819 -50.064 -31.942 -0 0 -0 -0 0 -0 -48.311 -20.073 9.3403 113.21 -34.693 -8.2865 -0 0 -0 10.582 -28.939 33.288 10.582 -28.939 33.288 -0 0 -0 -0 0 -0 -0 0 -0 -0 0 -0 -0 0 -0 -0 0 -0 -0 0 -0 -0 0 -0 -0 0 -0 -0 0 -0 -0 0 -0 -0 0 -0 
0 0.955 0 -0 0 -0 -0 0 -0 -0 0 -0 -5.9818 30.414 28.423 -0 0 -0 -0 0 -0 0.07514 -31.961 0.72541 -42.829 -50.056 -31.901 -0 0 -0 -0 0 -0 -48.358 -20.041 9.3354 113.24 -34.741 -8.2776 -0 0 -0 10.561 -28.948 33.27 10.561 -28.948 33.27 -0 0 -0 -0 0 -0 -0 0 -0 -0 0 -0 -0 0 -0 -0 0 -0 -0 0 -0 -0 0 -0 -0 0 -0 -0 0 -0 -0 0 -0 -0 0 -0 
0 0.955 0 -0 0 -0 -0 0 -0 -0 0 -0 -6.0182 30.396 28.445 -0 0 -0 -0 0 -0 0.11167 -31.981 0.75596 -42.818 -50.028 -31.844 -0 0 -0 -0 0 -0 -48.358 -19.988 9.2841 113.29 -34.691 -8.2427 -0 0 -0 10.568 -28.954 33.26 10.568 -28.954 33.26 -0 0 -0 -0 0 -0 -0 0 -0 -0 0 -0 -0 0 -0 -0 0 -0 -0 0 -0 -0 0 -0 -0 0 -0 -0 0 -0 -0 0 -0 -0 0 -0 
0 0.955 0 -0 0 -0 -0 0 -0 -0 0 -0 -6.0225 30.374 28.463 -0 0 -0 -0 0 -0 0.12983 -31.95 0.77834 -42.844 -50.019 -31.788 -0 0 -0 -0 0 -0 -48.316 -19.911 9.3232 113.31 -34.698 -8.2075 -0 0 -0 10.562 -28.948 33.245 10.562 -28.948 33.245 -0 0 -0 -0 0 -0 -0 0 -0 -0 0 -0 -0 0 -0 -0 0 -0 -0 0 -0 -0 0 -0 -0 0 -0 -0 0 -0 -0 0 -0 -0 0 -0 
0 0.955 0 -0 0 -0 -0 0 -0 -0 0 -0 -6.0074 30.379 28.411 -0 0 -0 -0 0 -0 0.18864 -31.947 0.88304 -42.901 -49.999 -31.699 -0 0 -0 -0 0 -0 -48.332 -19.976 9.3537 113.31 -34.71 -8.2226 -0 0 -0 10.563 -28.935 33.267 10.563 -28.935 33.267 -0 0 -0 -0 0 -0 -0 0 -0 -0 0 -0 -0 0 -0 -0 0 -0 -0 0 -0 -0 0 -0 -0 0 -0 -0 0 -0 -0 0 -0 -0 0 -0 
0 0.955 0 -0 0 -0 -0 0 -0 -0 0 -0 -6.0272 30.458 28.486 -0 0 -0 -0 0 -0 0.13553 -31.981 0.85051 -42.982 -49.994 -31.711 -0 0 -0 -0 0 -0 -48.363 -19.952 9.1992 113.26 -34.653 -8.2396 -0 0 -0 10.517 -28.964 33.229 10.517 -28.964 33.229 -0 0 -0 -0 0 -0 -0 0 -0 -0 0 -0 -0 0 -0 -0 0 -0 -0 0 -0 -0 0 -0 -0 0 -0 -0 0 -0 -0 0 -0 -0 0 -0 
0 0.955 0 -0 0 -0 -0 0 -0 -0 0 -0 -6.102 30.5 28.558 -0 0 -0 -0 0 -0 0.16525 -32.035 0.83323 -43.033 -49.978 -31.736 -0 0 -0 -0 0 -0 -48.404 -19.895 9.1305 113.34 -34.642 -8.1797 -0 0 -0 10.538 -28.986 33.205 10.538 -28.986 33.205 -0 0 -0 -0 0 -0 -0 0 -0 -0 0 -0 -0 0 -0 -0 0 -0 -0 0 -0 -0 0 -0 -0 0 -0 -0 0 -0 -0 0 -0 -0 0 -0 
0 0.955 0 -0 0 -0 -0 0 -0 -0 0 -0 -6.0758 30.573 28.515 -0 0 -0 -0 0 -0 0.11908 -32.079 0.85714 -43.045 -49.954 -31.767 -0 0 -0 -0 0 -0 -48.437 -19.914 9.1408 113.32 -34.655 -8.179 -0 0 -0 10.55 -28.965 33.223 10.55 -28.965 33.223 -0 0 -0 -0 0 -0 -0 0 -0 -0 0 -0 -0 0 -0 -0 0 -0 -0 0 -0 -0 0 -0 -0 0 -0 -0 0 -0 -0 0 -0 -0 0 -0 
0 0.955 0 -0 0 -0 -0 0 -0 -0 0 -0 -6.1001 30.562 28.518 -0 0 -0 -0 0 -0 0.19177 -32.069 0.87456 -43.094 -49.94 -31.813 -0 0 -0 -0 0 -0 -48.46 -19.872 9.16 113.39 -34.671 -8.1444 -0 0 -0 10.561 -28.936 33.197 10.561 -28.936 33.197 -0 0 -0 -0 0 -0 -0 0 -0 -0 0 -0 -0 0 -0 -0 0 -0 -0 0 -0 -0 0 -0 -0 0 -0 -0 0 -0 -0 0 -0 -0 0 -0 
0 0.955 0 -0 0 -0 -0 0 -0 -0 0 -0 -6.0776 30.514 28.501 -0 0 -0 -0 0 -0 0.21558 -31.968 0.85412 -43.112 -50.018 -31.83 -0 0 -0 -0 0 -0 -48.426 -19.853 9.2135 113.34 -34.672 -8.1483 -0 0 -0 10.56 -28.903 33.179 10.56 -28.903 33.179 -0 0 -0 -0 0 -0 -0 0 -0 -0 0 -0 -0 0 -0 -0 0 -0 -0 0 -0 -0 0 -0 -0 0 -0 -0 0 -0 -0 0 -0 -0 0 -0 
0 0.955 0 -0 0 -0 -0 0 -0 -0 0 -0 -6.0734 30.493 28.492 -0 0 -0 -0 0 -0 0.21493 -31.971 0.87746 -43.091 -50.022 -31.793 -0 0 -0 -0 0 -0 -48.408 -19.822 9.2264 113.34 -34.645 -8.1365 -0 0 -0 10.569 -28.901 33.182 10.569 -28.901 33.182 -0 0 -0 -0 0 -0 -0 0 -0 -0 0 -0 -0 0 -0 -0 0 -0 -0 0 -0 -0 0 -0 -0 0 -0 -0 0 -0 -0 0 -0 -0 0 -0 
0 0.955 0 -0 0 -0 -0 0 -0 -0 0 -0 -6.0236 30.45 28.472 -0 0 -0 -0 0 -0 0.19051 -31.934 0.89755 -43.098 -50.005 -31.765 -0 0 -0 -0 0 -0 -48.355 -19.818 9.2729 113.27 -34.636 -8.1878 -0 0 -0 10.564 -28.887 33.176 10.564 -28.887 33.176 -0 0 -0 -0 0 -0 -0 0 -0 -0 0 -0 -0 0 -0 -0 0 -0 -0 0 -0 -0 0 -0 -0 0 -0 -0 0 -0 -0 0 -0 -0 0 -0 
0 0.955 0 -0 0 -0 -0 0 -0 -0 0 -0 -5.9871 30.368 28.449 -0 0 -0 -0 0 -0 0.18805 -31.833 0.92813 -43.117 -50.014 -31.775 -0 0 -0 -0 0 -0 -48.264 -19.807 9.3443 113.18 -34.625 -8.2491 -0 0 -0 10.576 -28.858 33.156 10.576 -28.858 33.156 -0 0 -0 -0 0 -0 -0 0 -0 -0 0 -0 -0 0 -0 -0 0 -0 -0 0 -0 -0 0 -0 -0 0 -0 -0 0 -0 -0 0 -0 -0 0 -0 
0 0.955 0 -0 0 -0 -0 0 -0 -0 0 -0 -5.9837 30.304 28.44 -0 0 -0 -0 0 -0 0.1746 -31.791 0.9599 -43.075 -50.005 -31.762 -0 0 -0 -0 0 -0 -48.185 -19.838 9.3281 113.04 -34.588 -8.2973 -0 0 -0 10.593 -28.849 33.138 10.593 -28.849 33.138 -0 0 -0 -0 0 -0 -0 0 -0 -0 0 -0 -0 0 -0 -0 0 -0 -0 0 -0 -0 0 -0 -0 0 -0 -0 0 -0 -0 0 -0 -0 0 -0 
0 0.955 0 -0 0 -0 -0 0 -0 -0 0 -0 -5.9609 30.233 28.408 -0 0 -0 -0 0 -0 0.18391 -31.732 1.0175 -43.063 -49.996 -31.708 -0 0 -0 -0 0 -0 -48.127 -19.828 9.2422 112.73 -34.46 -8.3089 -0 0 -0 10.606 -28.855 33.138 10.606 -28.855 33.138 -0 0 -0 -0 0 -0 -0 0 -0 -0 0 -0 -0 0 -0 -0 0 -0 -0 0 -0 -0 0 -0 -0 0 -0 -0 0 -0 -0 0 -0 -0 0 -0 
0 0.955 0 -0 0 -0 -0 0 -0 -0 0 -0 -5.9508 30.17 28.374 -0 0 -0 -0 0 -0 0.20253 -31.678 1.1226 -43.107 -49.953 -31.812 -0 0 -0 -0 0 -0 -48.075 -19.821 9.2369 112.4 -34.43 -8.1076 -0 0 -0 10.613 -28.873 33.135 10.613 -28.873 33.135 -0 0 -0 -0 0 -0 -0 0 -0 -0 0 -0 -0 0 -0 -0 0 -0 -0 0 -0 -0 0 -0 -0 0 -0 -0 0 -0 -0 0 -0 -0 0 -0 
0 0.955 0 -0 0 -0 -0 0 -0 -0 0 -0 -5.8999 30.136 28.334 -0 0 -0 -0 0 -0 0.17689 -31.604 1.0654 -43.04 -50.008 -31.897 -0 0 -0 -0 0 -0 -48.027 -19.82 9.2931 112.08 -34.446 -7.8329 -0 0 -0 10.593 -28.879 33.114 10.593 -28.879 33.114 -0 0 -0 -0 0 -0 -0 0 -0 -0 0 -0 -0 0 -0 -0 0 -0 -0 0 -0 -0 0 -0 -0 0 -0 -0 0 -0 -0 0 -0 -0 0 -0 
0 0.955 0 -0 0 -0 -0 0 -0 -0 0 -0 -5.9081 30.056 28.369 -0 0 -0 -0 0 -0 0.20731 -31.531 0.99283 -42.994 -50.058 -31.979 -0 0 -0 -0 0 -0 -47.98 -19.756 9.38 111.89 -34.5 -7.5083 -0 0 -0 10.597 -28.87 33.061 10.597 -28.87 33.061 -0 0 -0 -0 0 -0 -0 0 -0 -0 0 -0 -0 0 -0 -0 0 -0 -0 0 -0 -0 0 -0 -0 0 -0 -0 0 -0 -0 0 -0 -0 0 -0 
0 0.955 0 -0 0 -0 -0 0 -0 -0 0 -0 -5.8899 29.936 28.364 -0 0 -0 -0 0 -0 0.21505 -31.452 0.99934 -42.969 -50.087 -32.152 -0 0 -0 -0 0 -0 -47.906 -19.714 9.4496 111.77 -34.455 -7.3763 -0 0 -0 10.635 -28.812 33.052 10.635 -28.812 33.052 -0 0 -0 -0 0 -0 -0 0 -0 -0 0 -0 -0 0 -0 -0 0 -0 -0 0 -0 -0 0 -0 -0 0 -0 -0 0 -0 -0 0 -0 -0 0 -0 
0 0.955 0 -0 0 -0 -0 0 -0 -0 0 -0 -5.9735 29.805 28.369 -0 0 -0 -0 0 -0 0.33623 -31.344 0.95772 -42.971 -50.342 -32.592 -0 0 -0 -0 0 -0 -47.677 -19.727 9.5893 111.67 -34.423 -7.3157 -0 0 -0 10.725 -28.787 33.075 10.725 -28.787 33.075 -0 0 -0 -0 0 -0 -0 0 -0 -0 0 -0 -0 0 -0 -0 0 -0 -0 0 -0 -0 0 -0 -0 0 -0 -0 0 -0 -0 0 -0 -0 0 -0 
0 0.955 0 -0 0 -0 -0 0 -0 -0 0 -0 -6.1761 29.358 28.104 -0 0 -0 -0 0 -0 0.82535 -30.899 1.2386 -42.982 -50.953 -33.737 -0 0 -0 -0 0 -0 -46.632 -19.637 10.275 111.28 -34.335 -7.0726 -0 0 -0 11.067 -28.657 33.159 11.067 -28.657 33.159 -0 0 -0 -0 0 -0 -0 0 -0 -0 0 -0 -0 0 -0 -0 0 -0 -0 0 -0 -0 0 -0 -0 0 -0 -0 0 -0 -0 0 -0 -0 0 -0 
0 0.955 0 -0 0 -0 -0 0 -0 -0 0 -0 -6.5692 28.35 28.237 -0 0 -0 -0 0 -0 1.2037 -30.013 1.1554 -42.741 -51.774 -35.374 -0 0 -0 -0 0 -0 -44.38 -17.867 9.8772 110.26 -32.944 -6.5972 -0 0 -0 11.39 -28.388 32.878 11.39 -28.388 32.878 -0 0 -0 -0 0 -0 -0 0 -0 -0 0 -0 -0 0 -0 -0 0 -0 -0 0 -0 -0 0 -0 -0 0 -0 -0 0 -0 -0 0 -0 -0 0 -0 
0 0.955 0 -0 0 -0 -0 0 -0 -0 0 -0 -6.6524 27.186 27.69 -0 0 -0 -0 0 -0 1.6535 -29.139 3.1687 -43.361 -51.585 -38.224 -0 0 -0 -0 0 -0 -41.661 -15.772 9.0151 109.02 -31.682 -6.7948 -0 0 -0 11.537 -27.953 32.86 11.537 -27.953 32.86 -0 0 -0 -0 0 -0 -0 0 -0 -0 0 -0 -0 0 -0 -0 0 -0 -0 0 -0 -0 0 -0 -0 0 -0 -0 0 -0 -0 0 -0 -0 0 -0 
0 0.955 0 -0 0 -0 -0 0 -0 -0 0 -0 -6.8037 26.152 26.945 -0 0 -0 -0 0 -0 2.6018 -28.538 5.7981 -44.401 -51.093 -40.664 -0 0 -0 -0 0 -0 -39.51 -14.419 8.8343 107.5 -31.895 -5.4751 -0 0 -0 11.678 -27.708 32.996 11.678 -27.708 32.996 -0 0 -0 -0 0 -0 -0 0 -0 -0 0 -0 -0 0 -0 -0 0 -0 -0 0 -0 -0 0 -0 -0 0 -0 -0 0 -0 -0 0 -0 -0 0 -0 
0 0.955 0 -0 0 -0 -0 0 -0 -0 0 -0 -6.8728 25.033 26.192 -0 0 -0 -0 0 -0 3.3928 -27.637 7.9 -45.517 -51.108 -42.782 -0 0 -0 -0 0 -0 -37.974 -13.733 7.7257 105.77 -31.278 -4.3153 -0 0 -0 11.89 -27.494 33.029 11.89 -27.494 33.029 -0 0 -0 -0 0 -0 -0 0 -0 -0 0 -0 -0 0 -0 -0 0 -0 -0 0 -0 -0 0 -0 -0 0 -0 -0 0 -0 -0 0 -0 -0 0 -0 
0 0.955 0 -0 0 -0 -0 0 -0 -0 0 -0 -6.7773 24.23 25.826 -0 0 -0 -0 0 -0 2.9705 -26.848 8.5406 -45.751 -52.319 -43.464 -0 0 -0 -0 0 -0 -36.884 -13.138 7.9222 104.57 -31.967 -2.2081 -0 0 -0 11.667 -27.481 32.81 11.667 -27.481 32.81 -0 0 -0 -0 0 -0 -0 0 -0 -0 0 -0 -0 0 -0 -0 0 -0 -0 0 -0 -0 0 -0 -0 0 -0 -0 0 -0 -0 0 -0 -0 0 -0 
0 0.955 0 -0 0 -0 -0 0 -0 -0 0 -0 -6.823 23.537 25.976 -0 0 -0 -0 0 -0 2.529 -26.563 9.7816 -45.778 -53.368 -43.219 -0 0 -0 -0 0 -0 -35.702 -12.406 8.9414 103.95 -33.126 1.7671 -0 0 -0 11.211 -27.679 32.361 11.211 -27.679 32.361 -0 0 -0 -0 0 -0 -0 0 -0 -0 0 -0 -0 0 -0 -0 0 -0 -0 0 -0 -0 0 -0 -0 0 -0 -0 0 -0 -0 0 -0 -0 0 -0 
0 0.955 0 -0 0 -0 -0 0 -0 -0 0 -0 -7.0721 22.767 26.361 -0 0 -0 -0 0 -0 2.0619 -26.044 12.418 -45.959 -54.21 -43.153 -0 0 -0 -0 0 -0 -33.923 -11.642 10.787 103.32 -34.457 6.4149 -0 0 -0 10.897 -27.929 31.866 10.897 -27.929 31.866 -0 0 -0 -0 0 -0 -0 0 -0 -0 0 -0 -0 0 -0 -0 0 -0 -0 0 -0 -0 0 -0 -0 0 -0 -0 0 -0 -0 0 -0 -0 0 -0 
0 0.955 0 -0 0 -0 -0 0 -0 -0 0 -0 -7.2927 22.051 26.79 -0 0 -0 -0 0 -0 1.6542 -25.266 15.977 -46.092 -55.347 -42.632 -0 0 -0 -0 0 -0 -31.529 -11.476 13.331 102.33 -36.284 11.323 -0 0 -0 10.701 -28.142 31.415 10.701 -28.142 31.415 -0 0 -0 -0 0 -0 -0 0 -0 -0 0 -0 -0 0 -0 -0 0 -0 -0 0 -0 -0 0 -0 -0 0 -0 -0 0 -0 -0 0 -0 -0 0 -0 
0 0.955 0 -0 0 -0 -0 0 -0 -0 0 -0 -7.5886 21.228 27.471 -0 0 -0 -0 0 -0 1.2486 -24.146 20.642 -47.062 -56.483 -42.741 -0 0 -0 -0 0 -0 -28.672 -11.582 15.598 100.61 -38.166 17.24 -0 0 -0 10.582 -28.313 30.873 10.582 -28.313 30.873 -0 0 -0 -0 0 -0 -0 0 -0 -0 0 -0 -0 0 -0 -0 0 -0 -0 0 -0 -0 0 -0 -0 0 -0 -0 0 -0 -0 0 -0 -0 0 -0 
0 0.955 0 -0 0 -0 -0 0 -0 -0 0 -0 -8.1832 20.549 28.55 -0 0 -0 -0 0 -0 0.86628 -23.625 25.926 -48.823 -57.218 -43.587 -0 0 -0 -0 0 -0 -25.077 -11.885 17.748 98.661 -40.314 22.971 -0 0 -0 10.4 -28.675 30.199 10.4 -28.675 30.199 -0 0 -0 -0 0 -0 -0 0 -0 -0 0 -0 -0 0 -0 -0 0 -0 -0 0 -0 -0 0 -0 -0 0 -0 -0 0 -0 -0 0 -0 -0 0 -0 
0 0.955 0 -0 0 -0 -0 0 -0 -0 0 -0 -8.6473 19.987 29.749 -0 0 -0 -0 0 -0 0.30833 -23.779 30.354 -49.477 -57.959 -43.482 -0 0 -0 -0 0 -0 -21.609 -12.737 19.753 97.146 -41.942 26.132 -0 0 -0 10.043 -29.06 29.426 10.043 -29.06 29.426 -0 0 -0 -0 0 -0 -0 0 -0 -0 0 -0 -0 0 -0 -0 0 -0 -0 0 -0 -0 0 -0 -0 0 -0 -0 0 -0 -0 0 -0 -0 0 -0 
0 0.955 0 -0 0 -0 -0 0 -0 -0 0 -0 -9.1589 19.576 30.905 -0 0 -0 -0 0 -0 -0.49164 -24.008 34.62 -49.585 -58.777 -43.146 -0 0 -0 -0 0 -0 -17.724 -13.913 22.041 95.177 -42.798 27.218 -0 0 -0 9.7899 -29.52 28.683 9.7899 -29.52 28.683 -0 0 -0 -0 0 -0 -0 0 -0 -0 0 -0 -0 0 -0 -0 0 -0 -0 0 -0 -0 0 -0 -0 0 -0 -0 0 -0 -0 0 -0 -0 0 -0 
0 0.955 0 -0 0 -0 -0 0 -0 -0 0 -0 -9.7657 19.206 32.137 -0 0 -0 -0 0 -0 -1.1924 -24.018 38.81 -49.916 -59.502 -43.789 -0 0 -0 -0 0 -0 -13.99 -14.722 23.974 92.951 -43.154 28.389 -0 0 -0 9.5672 -29.994 27.93 9.5672 -29.994 27.93 -0 0 -0 -0 0 -0 -0 0 -0 -0 0 -0 -0 0 -0 -0 0 -0 -0 0 -0 -0 0 -0 -0 0 -0 -0 0 -0 -0 0 -0 -0 0 -0 
0 0.955 0 -0 0 -0 -0 0 -0 -0 0 -0 -10.343 19.292 33.797 -0 0 -0 -0 0 -0 -2.199 -24.762 41.216 -48.81 -60.091 -44.527 -0 0 -0 -0 0 -0 -10.961 -15.484 23.202 90.904 -41.726 27.495 -0 0 -0 8.9405 -30.528 26.992 8.9405 -30.528 26.992 -0 0 -0 -0 0 -0 -0 0 -0 -0 0 -0 -0 0 -0 -0 0 -0 -0 0 -0 -0 0 -0 -0 0 -0 -0 0 -0 -0 0 -0 -0 0 -0 
0 0.955 0 -0 0 -0 -0 0 -0 -0 0 -0 -11.039 19.647 35.24 -0 0 -0 -0 0 -0 -3.6078 -25.671 40.965 -45.381 -61.841 -44.419 -0 0 -0 -0 0 -0 -8.2733 -16.231 22.641 89.392 -40.546 25.053 -0 0 -0 8.3353 -31.15 26.267 8.3353 -31.15 26.267 -0 0 -0 -0 0 -0 -0 0 -0 -0 0 -0 -0 0 -0 -0 0 -0 -0 0 -0 -0 0 -0 -0 0 -0 -0 0 -0 -0 0 -0 -0 0 -0 
